<svg width="127" height="127" viewBox="0 0 127 127" fill="none" xmlns="http://www.w3.org/2000/svg">
<path d="M56.2591 112.705L56.2591 48.7599L57.1972 49.3786C62.1317 52.6327 68.5905 52.384 73.26 48.7599L73.26 112.705C73.26 117.4 69.4543 121.206 64.7596 121.206C60.0649 121.206 56.2591 117.4 56.2591 112.705Z" fill="#2C225E"/>
<path fill-rule="evenodd" clip-rule="evenodd" d="M55.2153 46.8195L57.7734 48.5065C62.3344 51.5143 68.3043 51.2844 72.6204 47.9346L74.3058 46.6266L74.3058 112.706C74.3058 117.977 70.0323 122.251 64.7606 122.251C59.4889 122.251 55.2153 117.977 55.2153 112.706L55.2153 46.8195ZM57.3049 50.6748L57.3049 112.706C57.3049 116.823 60.6429 120.161 64.7606 120.161C68.8782 120.161 72.2162 116.823 72.2162 112.706L72.2162 50.7184C67.6293 53.366 61.9292 53.3795 57.3049 50.6748Z" fill="#2C225E"/>
<path d="M53.7078 47.0126L39.5163 47.0126C38.3622 47.0126 37.4267 46.077 37.4267 44.923L37.4267 37.3873C37.4267 36.2333 38.3607 35.2977 39.5148 35.2977L53.7102 35.2976C54.5017 35.2976 55.2089 34.8381 55.6459 34.1782C59.8292 27.8608 69.6942 27.8609 73.8775 34.1783C74.3145 34.8382 75.0218 35.2945 75.8127 35.3235C81.4432 35.5296 92.4743 36.9744 99.3901 39.6578C100.865 40.2302 100.865 42.08 99.3901 42.6524C92.4743 45.3358 81.4432 46.7807 75.8127 46.9869C75.0218 47.0159 74.3145 47.4722 73.8775 48.1321C69.6943 54.4495 59.8292 54.4495 55.6459 48.132C55.2089 47.4721 54.4993 47.0126 53.7078 47.0126Z" fill="#2C225E"/>
<path fill-rule="evenodd" clip-rule="evenodd" d="M36.3815 37.3873C36.3815 35.6573 37.7822 34.2529 39.5143 34.2529L53.7098 34.2528C54.0818 34.2528 54.4894 34.0317 54.7744 33.6013C59.3708 26.66 70.1517 26.6601 74.7482 33.6014C75.0292 34.0257 75.4472 34.2646 75.8505 34.2794C81.5378 34.4876 92.699 35.9411 99.7676 38.6837C100.889 39.1188 101.541 40.0992 101.541 41.1551C101.541 42.2109 100.889 43.1913 99.7676 43.6264C92.699 46.3692 81.5378 47.8227 75.8505 48.031C75.4472 48.0458 75.0292 48.2847 74.7482 48.709C70.1518 55.6503 59.3708 55.6503 54.7743 48.7089C54.4902 48.2797 54.0805 48.0574 53.7073 48.0574L39.5158 48.0574C37.7848 48.0574 36.3814 46.6541 36.3814 44.923L36.3815 37.3873ZM39.5143 36.3425C38.9383 36.3425 38.4711 36.8093 38.4711 37.3873L38.471 44.923C38.471 45.5 38.9388 45.9678 39.5158 45.9678L53.7073 45.9678C54.9171 45.9678 55.9268 46.6645 56.5166 47.5552C60.2867 53.2487 69.2358 53.2487 73.006 47.5553C73.599 46.6598 74.5954 45.986 75.774 45.9428C81.3477 45.7386 92.2488 44.3025 99.0117 41.6784C99.3655 41.5411 99.4513 41.3103 99.4513 41.1551C99.4513 40.9998 99.3655 40.7691 99.0117 40.6318C92.2488 38.0078 81.3477 36.5717 75.7741 36.3676C74.5955 36.3244 73.599 35.6507 73.0059 34.7551C69.2358 29.0617 60.2867 29.0616 56.5166 34.755C55.9276 35.6445 54.9208 36.3424 53.7098 36.3424L39.5143 36.3425Z" fill="#2C225E"/>
<path d="M30.3056 33.4818L30.3055 48.8276C30.3055 49.9817 31.241 50.9172 32.3951 50.9172L39.931 50.9172C41.0851 50.9172 42.0206 49.9817 42.0206 48.8276L42.0206 33.4819C42.0206 32.3278 41.0851 31.3923 39.931 31.3923L32.3952 31.3923C31.2411 31.3922 30.3056 32.3278 30.3056 33.4818Z" fill="#2C225E"/>
<path fill-rule="evenodd" clip-rule="evenodd" d="M32.3952 32.4371C31.8182 32.437 31.3504 32.9048 31.3504 33.4818L31.3503 48.8276C31.3503 49.4047 31.8181 49.8724 32.3951 49.8724H39.9311C40.5081 49.8724 40.9759 49.4047 40.9759 48.8276L40.9759 33.4819C40.9759 32.9049 40.5081 32.4371 39.9311 32.4371L32.3952 32.4371ZM29.2608 33.4818C29.2608 31.7507 30.6641 30.3474 32.3952 30.3475L39.9311 30.3475C41.6622 30.3475 43.0655 31.7508 43.0655 33.4819L43.0655 48.8276C43.0655 50.5587 41.6621 51.962 39.9311 51.962L32.3951 51.962C30.664 51.962 29.2607 50.5587 29.2607 48.8276L29.2608 33.4818Z" fill="#2C225E"/>
<path fill-rule="evenodd" clip-rule="evenodd" d="M118.509 68.3568L108.592 66.6863C107.362 66.4791 106.235 67.3143 106.075 68.5518C105.915 69.7892 106.783 70.9605 108.013 71.1677L120.264 73.2313C118.989 76.7315 117.127 79.9595 114.745 82.7235C109.924 88.3189 103.362 91.5634 96.4514 91.7818L96.467 92.9361C96.494 94.9245 94.904 96.5583 92.9156 96.5854C90.9272 96.6124 89.2934 95.0224 89.2664 93.034L88.4393 32.1455C88.4123 30.1571 90.0024 28.5233 91.9907 28.4963C93.8335 28.4713 95.3717 29.835 95.6086 31.6176C102.532 31.6408 109.19 34.7066 114.167 40.1757C116.491 42.7286 118.36 45.7093 119.715 48.957L107.743 51.3097C106.519 51.5503 105.683 52.7446 105.877 53.9773C106.07 55.21 107.22 56.0143 108.444 55.7737L121.17 53.2728C121.183 53.3228 121.196 53.3728 121.209 53.4229C123.675 52.8483 124.8 57.9737 124.84 60.9372C124.881 63.9291 124.286 69.73 122.072 69.202C121.294 69.0165 120.481 68.8288 119.661 68.6395L119.66 68.6393L118.977 68.4815C118.819 68.4448 118.663 68.4032 118.509 68.3568Z" fill="#F6C02A"/>
</svg>
