<svg width="256" height="256" viewBox="0 0 256 256" fill="none" xmlns="http://www.w3.org/2000/svg">
<rect width="256" height="256" rx="8" fill="white"/>
<path d="M66.112 176.08V163.024C66.112 161.616 67.04 160.848 68.224 160.848C69.408 160.848 70.336 161.616 70.336 163.024V164.816H70.4C70.944 162.864 72 160.848 74.272 160.848C75.744 160.848 76.832 161.808 76.832 163.12C76.832 164.848 75.68 165.456 74.528 165.456H73.696C71.808 165.456 70.784 166.768 70.784 170.64V176.08C70.784 177.328 70.272 178.416 68.448 178.416C66.624 178.416 66.112 177.328 66.112 176.08ZM93.8448 165.648V173.488C93.8448 175.44 94.3248 175.888 94.3248 176.624C94.3248 177.68 93.3328 178.416 92.2128 178.416C90.1968 178.416 89.5248 177.136 89.4608 175.696C87.6368 177.712 85.5248 178.416 83.0608 178.416C80.4048 178.416 77.7808 176.592 77.7808 173.648C77.7808 169.776 80.7248 168.688 84.3088 168.272L87.1568 167.952C88.2768 167.824 89.1728 167.568 89.1728 166.224C89.1728 164.88 87.7968 164.304 86.2288 164.304C82.7728 164.304 82.6768 166.864 80.8208 166.864C79.6368 166.864 78.8368 166.032 78.8368 165.072C78.8368 163.216 81.4608 160.848 86.2608 160.848C90.7408 160.848 93.8448 162.288 93.8448 165.648ZM89.1728 171.952V170.128C88.6608 170.608 87.7008 170.768 87.1568 170.864L85.4608 171.12C83.5088 171.408 82.4528 172.016 82.4528 173.424C82.4528 174.48 83.4448 175.344 85.0448 175.344C87.6048 175.344 89.1728 173.68 89.1728 171.952ZM113.727 156.88V176.208C113.727 177.648 113.055 178.416 111.615 178.416C110.239 178.416 109.503 177.648 109.503 176.208V175.472H109.439C108.671 177.456 106.783 178.416 104.511 178.416C100.607 178.416 97.1833 175.568 97.1833 169.52C97.1833 165.04 99.4553 160.848 104.383 160.848C106.463 160.848 108.063 161.712 108.991 163.216H109.055V156.88C109.055 155.344 109.983 154.544 111.391 154.544C112.799 154.544 113.727 155.344 113.727 156.88ZM101.855 169.68C101.855 172.432 103.071 174.704 105.567 174.768C108.287 174.768 109.311 172.336 109.311 169.68C109.311 167.28 108.415 164.464 105.567 164.496C102.591 164.496 101.855 167.504 101.855 169.68ZM131.978 170.512H121.418C121.418 172.976 123.018 174.768 125.738 174.768C129.258 174.768 129.258 172.464 131.146 172.464C132.266 172.464 133.066 173.424 133.066 174.288C133.066 177.104 128.554 178.416 125.738 178.416C119.21 178.416 116.746 174 116.746 169.936C116.746 164.496 120.042 160.848 125.578 160.848C130.954 160.848 134.026 164.656 134.026 168.496C134.026 170.096 133.546 170.512 131.978 170.512ZM121.418 167.824H129.61C129.354 165.68 127.754 164.112 125.674 164.112C123.338 164.112 121.93 165.552 121.418 167.824Z" fill="#2C225E"/>
<path d="M138.336 175.856V157.136C138.336 155.024 139.776 154.544 141.184 154.544H142.72C144.352 154.544 145.12 155.184 145.664 156.944L150.24 171.728H150.304L154.816 156.944C155.36 155.184 156.128 154.544 157.76 154.544H159.232C160.64 154.544 162.08 155.024 162.08 157.136V175.856C162.08 177.168 161.44 178.416 159.744 178.416C158.048 178.416 157.408 177.168 157.408 175.856V161.584H157.344L152.448 176.88C152.096 177.968 151.296 178.416 150.208 178.416C149.12 178.416 148.32 177.968 147.968 176.88L143.072 161.584H143.008V175.856C143.008 177.168 142.368 178.416 140.672 178.416C138.976 178.416 138.336 177.168 138.336 175.856ZM181.782 165.648V173.488C181.782 175.44 182.262 175.888 182.262 176.624C182.262 177.68 181.27 178.416 180.15 178.416C178.134 178.416 177.462 177.136 177.398 175.696C175.574 177.712 173.462 178.416 170.998 178.416C168.342 178.416 165.718 176.592 165.718 173.648C165.718 169.776 168.662 168.688 172.246 168.272L175.094 167.952C176.214 167.824 177.11 167.568 177.11 166.224C177.11 164.88 175.734 164.304 174.166 164.304C170.71 164.304 170.614 166.864 168.758 166.864C167.574 166.864 166.774 166.032 166.774 165.072C166.774 163.216 169.398 160.848 174.198 160.848C178.678 160.848 181.782 162.288 181.782 165.648ZM177.11 171.952V170.128C176.598 170.608 175.638 170.768 175.094 170.864L173.398 171.12C171.446 171.408 170.39 172.016 170.39 173.424C170.39 174.48 171.382 175.344 172.982 175.344C175.542 175.344 177.11 173.68 177.11 171.952ZM187.041 174.256V164.336H186.241C184.929 164.336 184.385 163.824 184.385 162.8C184.385 161.776 184.929 161.264 186.241 161.264H187.041V158.416C187.041 156.88 187.969 156.08 189.377 156.08C190.785 156.08 191.713 156.88 191.713 158.416V161.264H193.121C194.497 161.264 195.233 161.68 195.233 162.8C195.233 163.92 194.497 164.336 193.121 164.336H191.713V173.68C191.713 174.384 192.097 174.768 192.929 174.768H193.601C194.625 174.768 195.233 175.344 195.233 176.336C195.233 177.68 194.081 178.416 191.841 178.416C188.449 178.416 187.041 177.008 187.041 174.256ZM212.197 170.512H201.637C201.637 172.976 203.237 174.768 205.957 174.768C209.477 174.768 209.477 172.464 211.365 172.464C212.485 172.464 213.285 173.424 213.285 174.288C213.285 177.104 208.773 178.416 205.957 178.416C199.429 178.416 196.965 174 196.965 169.936C196.965 164.496 200.261 160.848 205.797 160.848C211.173 160.848 214.245 164.656 214.245 168.496C214.245 170.096 213.765 170.512 212.197 170.512ZM201.637 167.824H209.829C209.573 165.68 207.973 164.112 205.893 164.112C203.557 164.112 202.149 165.552 201.637 167.824Z" fill="#F6C02A"/>
<path d="M53.8231 175.823L53.8231 160.257L54.1421 160.357C55.4607 160.774 56.8806 160.738 58.1767 160.257V175.823C58.1767 177.025 57.2021 178 55.9999 178C54.7977 178 53.8231 177.025 53.8231 175.823Z" fill="#2C225E" stroke="#2C225E" stroke-linecap="round"/>
<path d="M52.882 159L50 159C49.4477 159 49 158.552 49 158L49 157C49 156.448 49.4473 156 49.9996 156L52.8828 156C53.2615 156 53.5946 155.774 53.8366 155.483C54.9252 154.172 57.0748 154.172 58.1634 155.483C58.4054 155.774 58.7383 155.998 59.1165 156.02C60.4129 156.095 62.5118 156.377 64.1297 156.865C64.8547 157.084 64.8547 157.916 64.1297 158.135C62.5118 158.623 60.4129 158.905 59.1164 158.98C58.7383 159.002 58.4054 159.226 58.1634 159.517C57.0748 160.828 54.9252 160.828 53.8366 159.517C53.5946 159.226 53.2607 159 52.882 159Z" fill="#2C225E" stroke="#2C225E" stroke-linecap="round"/>
<path d="M47.1768 156L47.1767 159C47.1767 159.552 47.6245 160 48.1767 160L49.1768 160C49.7291 160 50.1768 159.552 50.1768 159L50.1768 156C50.1768 155.448 49.7291 155 49.1768 155L48.1768 155C47.6245 155 47.1768 155.448 47.1768 156Z" fill="#2C225E" stroke="#2C225E" stroke-linecap="round"/>
<mask id="path-7-inside-1_1514_22322" fill="white">
<path fill-rule="evenodd" clip-rule="evenodd" d="M207.222 156.793L206.718 159.555C206.655 159.897 206.884 160.215 207.229 160.264C207.573 160.314 207.903 160.076 207.966 159.733L208.588 156.323C209.56 156.692 210.453 157.224 211.216 157.899C212.758 159.265 213.639 161.108 213.673 163.037H213.995C214.55 163.037 215 163.487 215 164.042C215 164.597 214.55 165.047 213.995 165.047H197.005C196.45 165.047 196 164.597 196 164.042C196 163.528 196.386 163.104 196.885 163.044C196.917 161.113 197.798 159.267 199.343 157.899C200.064 157.26 200.902 156.75 201.814 156.384L202.425 159.733C202.487 160.076 202.817 160.314 203.162 160.264C203.507 160.215 203.735 159.897 203.673 159.555L203.023 155.995C203.037 155.991 203.051 155.988 203.065 155.985C202.914 155.294 204.348 155 205.175 155C206.01 155 207.626 155.188 207.471 155.804C207.416 156.02 207.361 156.246 207.305 156.474L207.258 156.664C207.247 156.708 207.235 156.751 207.222 156.793Z"/>
</mask>
<path fill-rule="evenodd" clip-rule="evenodd" d="M207.222 156.793L206.718 159.555C206.655 159.897 206.884 160.215 207.229 160.264C207.573 160.314 207.903 160.076 207.966 159.733L208.588 156.323C209.56 156.692 210.453 157.224 211.216 157.899C212.758 159.265 213.639 161.108 213.673 163.037H213.995C214.55 163.037 215 163.487 215 164.042C215 164.597 214.55 165.047 213.995 165.047H197.005C196.45 165.047 196 164.597 196 164.042C196 163.528 196.386 163.104 196.885 163.044C196.917 161.113 197.798 159.267 199.343 157.899C200.064 157.26 200.902 156.75 201.814 156.384L202.425 159.733C202.487 160.076 202.817 160.314 203.162 160.264C203.507 160.215 203.735 159.897 203.673 159.555L203.023 155.995C203.037 155.991 203.051 155.988 203.065 155.985C202.914 155.294 204.348 155 205.175 155C206.01 155 207.626 155.188 207.471 155.804C207.416 156.02 207.361 156.246 207.305 156.474L207.258 156.664C207.247 156.708 207.235 156.751 207.222 156.793Z" fill="#2C225E"/>
<path d="M207.222 156.793L206.268 156.492L206.249 156.552L206.238 156.614L207.222 156.793ZM206.718 159.555L205.734 159.375V159.375L206.718 159.555ZM207.229 160.264L207.087 161.254H207.087L207.229 160.264ZM207.966 159.733L206.982 159.554V159.554L207.966 159.733ZM208.588 156.323L208.943 155.389L207.82 154.962L207.604 156.144L208.588 156.323ZM211.216 157.899L211.878 157.15L211.216 157.899ZM213.673 163.037L212.674 163.055L212.691 164.037H213.673V163.037ZM196.885 163.044L197.003 164.037L197.87 163.934L197.885 163.061L196.885 163.044ZM199.343 157.899L200.006 158.648L200.006 158.648L199.343 157.899ZM201.814 156.384L202.797 156.205L202.578 155L201.441 155.456L201.814 156.384ZM202.425 159.733L201.441 159.913V159.913L202.425 159.733ZM203.162 160.264L203.303 161.254H203.303L203.162 160.264ZM203.673 159.555L202.689 159.734L203.673 159.555ZM203.023 155.995L202.783 155.024L201.871 155.25L202.04 156.174L203.023 155.995ZM203.065 155.985L203.3 156.957L204.251 156.726L204.042 155.771L203.065 155.985ZM207.471 155.804L206.501 155.559L206.501 155.559L207.471 155.804ZM207.305 156.474L208.276 156.713L208.276 156.713L207.305 156.474ZM207.258 156.664L208.229 156.903L208.229 156.903L207.258 156.664ZM206.238 156.614L205.734 159.375L207.702 159.734L208.205 156.973L206.238 156.614ZM205.734 159.375C205.57 160.276 206.181 161.125 207.087 161.254L207.37 159.274C207.587 159.305 207.741 159.519 207.702 159.734L205.734 159.375ZM207.087 161.254C207.964 161.38 208.791 160.784 208.95 159.913L206.982 159.554C207.016 159.368 207.183 159.248 207.37 159.274L207.087 161.254ZM208.95 159.913L209.572 156.503L207.604 156.144L206.982 159.554L208.95 159.913ZM208.233 157.258C209.098 157.587 209.886 158.057 210.553 158.648L211.878 157.15C211.021 156.391 210.022 155.798 208.943 155.389L208.233 157.258ZM210.553 158.648C211.901 159.842 212.644 161.426 212.674 163.055L214.673 163.019C214.633 160.79 213.615 158.688 211.878 157.15L210.553 158.648ZM213.995 162.037H213.673V164.037H213.995V162.037ZM216 164.042C216 162.935 215.102 162.037 213.995 162.037V164.037C213.997 164.037 213.998 164.037 213.997 164.037C213.997 164.037 213.997 164.037 213.997 164.037C213.997 164.037 213.997 164.037 213.999 164.039C214 164.04 214 164.041 214 164.04C214 164.04 214 164.04 214 164.04C214 164.04 214 164.04 214 164.042H216ZM213.995 166.047C215.102 166.047 216 165.149 216 164.042H214C214 164.044 214 164.044 214 164.044C214 164.044 214 164.044 214 164.043C214 164.043 214 164.044 213.999 164.045C213.997 164.046 213.997 164.047 213.997 164.047C213.997 164.047 213.997 164.046 213.997 164.046C213.998 164.046 213.997 164.047 213.995 164.047V166.047ZM197.005 166.047H213.995V164.047H197.005V166.047ZM195 164.042C195 165.149 195.898 166.047 197.005 166.047V164.047C197.003 164.047 197.002 164.046 197.003 164.046C197.003 164.046 197.003 164.047 197.003 164.047C197.003 164.047 197.003 164.046 197.001 164.045C197 164.044 197 164.043 197 164.043C197 164.044 197 164.044 197 164.044C197 164.044 197 164.044 197 164.042H195ZM196.767 162.051C195.771 162.17 195 163.015 195 164.042H197C197 164.039 197 164.039 197 164.04C197 164.041 197 164.04 197.001 164.039C197.002 164.038 197.003 164.037 197.003 164.037C197.003 164.037 197.003 164.037 197.003 164.037C197.003 164.037 197.003 164.037 197.003 164.037L196.767 162.051ZM197.885 163.061C197.912 161.43 198.655 159.843 200.006 158.648L198.68 157.15C196.941 158.69 195.923 160.796 195.885 163.027L197.885 163.061ZM200.006 158.648C200.637 158.089 201.376 157.638 202.186 157.312L201.441 155.456C200.429 155.863 199.491 156.432 198.68 157.15L200.006 158.648ZM200.83 156.564L201.441 159.913L203.408 159.554L202.797 156.205L200.83 156.564ZM201.441 159.913C201.6 160.784 202.427 161.38 203.303 161.254L203.02 159.274C203.208 159.248 203.374 159.368 203.408 159.554L201.441 159.913ZM203.303 161.254C204.21 161.125 204.821 160.276 204.657 159.375L202.689 159.734C202.65 159.519 202.803 159.305 203.02 159.274L203.303 161.254ZM204.657 159.375L204.007 155.815L202.04 156.174L202.689 159.734L204.657 159.375ZM203.263 156.966C203.276 156.963 203.288 156.96 203.3 156.957L202.83 155.013C202.814 155.017 202.799 155.02 202.783 155.024L203.263 156.966ZM204.042 155.771C204.062 155.863 204.058 155.973 204.021 156.08C203.986 156.178 203.936 156.233 203.918 156.251C203.895 156.273 203.931 156.233 204.093 156.174C204.403 156.062 204.849 156 205.175 156V154C204.674 154 203.99 154.085 203.414 154.293C203.133 154.394 202.787 154.557 202.512 154.828C202.203 155.133 201.961 155.615 202.088 156.198L204.042 155.771ZM205.175 156C205.543 156 206.067 156.043 206.449 156.14C206.653 156.192 206.718 156.235 206.705 156.226C206.692 156.216 206.613 156.156 206.55 156.027C206.478 155.877 206.464 155.706 206.501 155.559L208.44 156.049C208.516 155.747 208.486 155.436 208.352 155.158C208.227 154.9 208.041 154.725 207.885 154.611C207.587 154.393 207.224 154.274 206.94 154.202C206.344 154.051 205.643 154 205.175 154V156ZM206.501 155.559C206.445 155.779 206.389 156.009 206.333 156.236L208.276 156.713C208.332 156.484 208.386 156.261 208.44 156.049L206.501 155.559ZM206.333 156.236L206.287 156.426L208.229 156.903L208.276 156.713L206.333 156.236ZM206.287 156.426C206.281 156.448 206.275 156.47 206.268 156.492L208.175 157.095C208.195 157.032 208.213 156.968 208.229 156.903L206.287 156.426Z" fill="#2C225E" mask="url(#path-7-inside-1_1514_22322)"/>
<path d="M119.701 122.864L119.701 92.2622L120.15 92.5582C122.511 94.1155 125.602 93.9965 127.837 92.2622L127.837 122.864C127.837 125.111 126.016 126.932 123.769 126.932C121.522 126.932 119.701 125.111 119.701 122.864Z" fill="#2C225E" stroke="#2C225E" stroke-linecap="round"/>
<path d="M118.479 91.4255L111.688 91.4255C111.135 91.4255 110.688 90.9777 110.688 90.4255L110.688 86.8192C110.688 86.2669 111.135 85.8192 111.687 85.8192L118.48 85.8191C118.859 85.8191 119.198 85.5992 119.407 85.2834C121.409 82.2602 126.13 82.2602 128.132 85.2835C128.341 85.5993 128.679 85.8177 129.058 85.8315C131.752 85.9302 137.031 86.6216 140.341 87.9057C141.047 88.1797 141.047 89.0649 140.341 89.3388C137.031 90.623 131.752 91.3145 129.058 91.4132C128.679 91.427 128.341 91.6454 128.132 91.9612C126.13 94.9845 121.409 94.9845 119.407 91.9612C119.198 91.6454 118.858 91.4255 118.479 91.4255Z" fill="#2C225E" stroke="#2C225E" stroke-linecap="round"/>
<path d="M107.281 84.9501L107.281 92.294C107.281 92.8463 107.728 93.294 108.281 93.294L111.887 93.294C112.439 93.294 112.887 92.8463 112.887 92.294L112.887 84.9501C112.887 84.3978 112.439 83.9501 111.887 83.9501L108.281 83.9501C107.728 83.9501 107.281 84.3978 107.281 84.9501Z" fill="#2C225E" stroke="#2C225E" stroke-linecap="round"/>
<path fill-rule="evenodd" clip-rule="evenodd" d="M149.492 101.641L144.746 100.841C144.157 100.742 143.618 101.142 143.541 101.734C143.465 102.326 143.88 102.887 144.469 102.986L150.332 103.973C149.721 105.648 148.83 107.193 147.691 108.516C145.383 111.194 142.243 112.746 138.936 112.851L138.943 113.403C138.956 114.355 138.195 115.137 137.244 115.15C136.292 115.163 135.51 114.402 135.497 113.45L135.102 84.3113C135.089 83.3597 135.85 82.5778 136.801 82.5649C137.683 82.5529 138.419 83.2055 138.533 84.0586C141.846 84.0697 145.032 85.5369 147.414 88.1542C148.526 89.3759 149.421 90.8024 150.069 92.3566L144.34 93.4825C143.754 93.5976 143.354 94.1692 143.446 94.7591C143.539 95.349 144.089 95.7339 144.675 95.6188L150.765 94.422C150.771 94.4459 150.778 94.4698 150.784 94.4938C151.964 94.2188 152.502 96.6716 152.522 98.0898C152.541 99.5216 152.257 102.298 151.197 102.045C150.824 101.956 150.435 101.866 150.043 101.776L150.043 101.776L149.716 101.7C149.64 101.683 149.565 101.663 149.492 101.641Z" fill="#F6C02A"/>
</svg>
